<?xml version="1.0" encoding="utf-8"?>
<!-- Generator: Adobe Illustrator 23.0.3, SVG Export Plug-In . SVG Version: 6.00 Build 0)  -->
<svg version="1.1" id="Layer_1" xmlns="http://www.w3.org/2000/svg" xmlns:xlink="http://www.w3.org/1999/xlink" x="0px" y="0px"
	 viewBox="0 0 865.2 393.5" style="enable-background:new 0 0 865.2 393.5;" xml:space="preserve">
<style type="text/css">
	.st0{fill:#294270;}
	.st1{fill:#F0801A;}
	.st2{fill:#737370;}
</style>
<g>
	<path class="st0" d="M78.4,33.5h-9v68.4h9v6.2H62.2V27.3h16.2V33.5z"/>
	<path class="st0" d="M120.1,40.4v10.7h16.9v5.9h-16.9V81c0,1.7,0.2,3.1,0.7,4.3c0.4,1.1,1,2,1.8,2.7c0.8,0.7,1.6,1.1,2.6,1.4
		c1,0.3,2.1,0.4,3.2,0.4c0.8,0,1.7,0,2.5-0.1s1.7-0.2,2.6-0.3c0.8-0.1,1.6-0.3,2.3-0.4c0.7-0.1,1.3-0.3,1.8-0.4l1.1,5.4
		c-0.6,0.4-1.4,0.7-2.3,1c-0.9,0.3-1.9,0.5-2.9,0.7c-1.1,0.2-2.2,0.4-3.4,0.5c-1.2,0.1-2.4,0.2-3.5,0.2c-2,0-3.8-0.3-5.5-0.8
		c-1.7-0.6-3.2-1.4-4.4-2.7c-1.3-1.2-2.2-2.8-3-4.7c-0.7-1.9-1.1-4.2-1.1-7V56.9h-11.6v-5.9h11.6V40.4H120.1z"/>
	<path class="st0" d="M171.6,93.6c0,1.3-0.2,2.6-0.5,4c-0.3,1.4-0.8,2.8-1.4,4.2c-0.6,1.4-1.4,2.7-2.2,3.9c-0.9,1.3-1.9,2.4-3,3.4
		l-4.7-2.6c1.3-1.9,2.2-3.9,2.8-6.1c0.5-2.2,0.8-4.4,0.8-6.7v-7.3h8.2V93.6z"/>
	<path class="st0" d="M271,40.4v10.7h16.9v5.9H271V81c0,1.7,0.2,3.1,0.7,4.3c0.4,1.1,1,2,1.8,2.7c0.8,0.7,1.6,1.1,2.6,1.4
		c1,0.3,2.1,0.4,3.2,0.4c0.8,0,1.7,0,2.5-0.1s1.7-0.2,2.6-0.3c0.8-0.1,1.6-0.3,2.3-0.4c0.7-0.1,1.3-0.3,1.8-0.4l1.1,5.4
		c-0.6,0.4-1.4,0.7-2.3,1c-0.9,0.3-1.9,0.5-2.9,0.7c-1.1,0.2-2.2,0.4-3.4,0.5c-1.2,0.1-2.4,0.2-3.5,0.2c-2,0-3.8-0.3-5.5-0.8
		c-1.7-0.6-3.2-1.4-4.4-2.7c-1.3-1.2-2.2-2.8-3-4.7c-0.7-1.9-1.1-4.2-1.1-7V56.9h-11.6v-5.9h11.6V40.4H271z"/>
	<path class="st0" d="M322.5,93.6c0,1.3-0.2,2.6-0.5,4c-0.3,1.4-0.8,2.8-1.4,4.2c-0.6,1.4-1.4,2.7-2.2,3.9c-0.9,1.3-1.9,2.4-3,3.4
		l-4.7-2.6c1.3-1.9,2.2-3.9,2.8-6.1c0.5-2.2,0.8-4.4,0.8-6.7v-7.3h8.2V93.6z"/>
	<path class="st0" d="M415.2,95.4V56.9H403v-5.9h12.2V48c0-2.8,0.4-5.3,1.2-7.5c0.8-2.1,2-3.9,3.5-5.4c1.5-1.4,3.3-2.5,5.5-3.3
		c2.1-0.7,4.5-1.1,7.1-1.1c1.8,0,3.6,0.2,5.3,0.5c1.7,0.3,3.5,0.7,5.3,1.1l-0.9,6.3c-1.1-0.4-2.4-0.7-3.9-1
		c-1.5-0.3-3.1-0.4-4.8-0.4c-3.5,0-6.2,0.9-8,2.7c-1.8,1.8-2.7,4.5-2.7,8.1v3.1h17.1v5.9h-17.1v38.4H415.2z"/>
	<path class="st0" d="M473.4,93.6c0,1.3-0.2,2.6-0.5,4s-0.8,2.8-1.4,4.2c-0.6,1.4-1.4,2.7-2.2,3.9c-0.9,1.3-1.9,2.4-3,3.4l-4.7-2.6
		c1.3-1.9,2.2-3.9,2.8-6.1c0.5-2.2,0.8-4.4,0.8-6.7v-7.3h8.2V93.6z"/>
	<path class="st0" d="M572.7,40.4v10.7h16.9v5.9h-16.9V81c0,1.7,0.2,3.1,0.7,4.3c0.4,1.1,1,2,1.8,2.7c0.8,0.7,1.6,1.1,2.6,1.4
		c1,0.3,2.1,0.4,3.2,0.4c0.8,0,1.7,0,2.5-0.1s1.7-0.2,2.6-0.3s1.6-0.3,2.3-0.4c0.7-0.1,1.3-0.3,1.8-0.4l1.1,5.4
		c-0.6,0.4-1.4,0.7-2.3,1c-0.9,0.3-1.9,0.5-2.9,0.7c-1.1,0.2-2.2,0.4-3.4,0.5s-2.4,0.2-3.5,0.2c-2,0-3.8-0.3-5.5-0.8
		s-3.2-1.4-4.4-2.7c-1.3-1.2-2.2-2.8-3-4.7s-1.1-4.2-1.1-7V56.9h-11.6v-5.9h11.6V40.4H572.7z"/>
	<path class="st0" d="M624.3,93.6c0,1.3-0.2,2.6-0.5,4s-0.8,2.8-1.4,4.2c-0.6,1.4-1.4,2.7-2.2,3.9c-0.9,1.3-1.9,2.4-3,3.4l-4.7-2.6
		c1.3-1.9,2.2-3.9,2.8-6.1c0.5-2.2,0.8-4.4,0.8-6.7v-7.3h8.2V93.6z"/>
	<path class="st0" d="M717,95.4V56.9h-12.2v-5.9H717V48c0-2.8,0.4-5.3,1.2-7.5c0.8-2.1,2-3.9,3.5-5.4c1.5-1.4,3.3-2.5,5.5-3.3
		c2.1-0.7,4.5-1.1,7.1-1.1c1.8,0,3.6,0.2,5.3,0.5c1.7,0.3,3.5,0.7,5.3,1.1l-0.9,6.3c-1.1-0.4-2.4-0.7-3.9-1
		c-1.5-0.3-3.1-0.4-4.8-0.4c-3.5,0-6.2,0.9-8,2.7c-1.8,1.8-2.7,4.5-2.7,8.1v3.1h17.1v5.9h-17.1v38.4H717z"/>
	<path class="st0" d="M765.5,27.3h16.2v80.9h-16.2v-6.2h9.1V33.5h-9.1V27.3z"/>
</g>
<g>
	<path class="st0" d="M78.4,175h-9v68.4h9v6.2H62.2v-80.9h16.2V175z"/>
	<path class="st1" d="M120.1,181.9v10.7h16.9v5.9h-16.9v24.1c0,1.7,0.2,3.1,0.7,4.3c0.4,1.1,1,2,1.8,2.7c0.8,0.7,1.6,1.1,2.6,1.4
		c1,0.3,2.1,0.4,3.2,0.4c0.8,0,1.7,0,2.5-0.1s1.7-0.2,2.6-0.3c0.8-0.1,1.6-0.3,2.3-0.4c0.7-0.1,1.3-0.3,1.8-0.4l1.1,5.4
		c-0.6,0.4-1.4,0.7-2.3,1c-0.9,0.3-1.9,0.5-2.9,0.7c-1.1,0.2-2.2,0.4-3.4,0.5c-1.2,0.1-2.4,0.2-3.5,0.2c-2,0-3.8-0.3-5.5-0.8
		c-1.7-0.6-3.2-1.4-4.4-2.7c-1.3-1.2-2.2-2.8-3-4.7c-0.7-1.9-1.1-4.2-1.1-7v-24.1h-11.6v-5.9h11.6v-10.7H120.1z"/>
	<path class="st0" d="M171.6,235.1c0,1.3-0.2,2.6-0.5,4c-0.3,1.4-0.8,2.8-1.4,4.2c-0.6,1.4-1.4,2.7-2.2,3.9c-0.9,1.3-1.9,2.4-3,3.4
		l-4.7-2.6c1.3-1.9,2.2-3.9,2.8-6.1c0.5-2.2,0.8-4.4,0.8-6.7v-7.3h8.2V235.1z"/>
	<path class="st1" d="M271,181.9v10.7h16.9v5.9H271v24.1c0,1.7,0.2,3.1,0.7,4.3c0.4,1.1,1,2,1.8,2.7c0.8,0.7,1.6,1.1,2.6,1.4
		c1,0.3,2.1,0.4,3.2,0.4c0.8,0,1.7,0,2.5-0.1s1.7-0.2,2.6-0.3c0.8-0.1,1.6-0.3,2.3-0.4c0.7-0.1,1.3-0.3,1.8-0.4l1.1,5.4
		c-0.6,0.4-1.4,0.7-2.3,1c-0.9,0.3-1.9,0.5-2.9,0.7c-1.1,0.2-2.2,0.4-3.4,0.5c-1.2,0.1-2.4,0.2-3.5,0.2c-2,0-3.8-0.3-5.5-0.8
		c-1.7-0.6-3.2-1.4-4.4-2.7c-1.3-1.2-2.2-2.8-3-4.7c-0.7-1.9-1.1-4.2-1.1-7v-24.1h-11.6v-5.9h11.6v-10.7H271z"/>
	<path class="st0" d="M322.5,235.1c0,1.3-0.2,2.6-0.5,4c-0.3,1.4-0.8,2.8-1.4,4.2c-0.6,1.4-1.4,2.7-2.2,3.9c-0.9,1.3-1.9,2.4-3,3.4
		l-4.7-2.6c1.3-1.9,2.2-3.9,2.8-6.1c0.5-2.2,0.8-4.4,0.8-6.7v-7.3h8.2V235.1z"/>
	<path class="st2" d="M415.2,236.9v-38.4H403v-5.9h12.2v-3.1c0-2.8,0.4-5.3,1.2-7.5c0.8-2.1,2-3.9,3.5-5.4c1.5-1.4,3.3-2.5,5.5-3.3
		c2.1-0.7,4.5-1.1,7.1-1.1c1.8,0,3.6,0.2,5.3,0.5c1.7,0.3,3.5,0.7,5.3,1.1l-0.9,6.3c-1.1-0.4-2.4-0.7-3.9-1
		c-1.5-0.3-3.1-0.4-4.8-0.4c-3.5,0-6.2,0.9-8,2.7c-1.8,1.8-2.7,4.5-2.7,8.1v3.1h17.1v5.9h-17.1v38.4H415.2z"/>
	<path class="st0" d="M473.4,235.1c0,1.3-0.2,2.6-0.5,4s-0.8,2.8-1.4,4.2c-0.6,1.4-1.4,2.7-2.2,3.9c-0.9,1.3-1.9,2.4-3,3.4l-4.7-2.6
		c1.3-1.9,2.2-3.9,2.8-6.1c0.5-2.2,0.8-4.4,0.8-6.7v-7.3h8.2V235.1z"/>
	<path class="st1" d="M572.7,181.9v10.7h16.9v5.9h-16.9v24.1c0,1.7,0.2,3.1,0.7,4.3c0.4,1.1,1,2,1.8,2.7c0.8,0.7,1.6,1.1,2.6,1.4
		c1,0.3,2.1,0.4,3.2,0.4c0.8,0,1.7,0,2.5-0.1s1.7-0.2,2.6-0.3s1.6-0.3,2.3-0.4c0.7-0.1,1.3-0.3,1.8-0.4l1.1,5.4
		c-0.6,0.4-1.4,0.7-2.3,1c-0.9,0.3-1.9,0.5-2.9,0.7c-1.1,0.2-2.2,0.4-3.4,0.5s-2.4,0.2-3.5,0.2c-2,0-3.8-0.3-5.5-0.8
		s-3.2-1.4-4.4-2.7c-1.3-1.2-2.2-2.8-3-4.7s-1.1-4.2-1.1-7v-24.1h-11.6v-5.9h11.6v-10.7H572.7z"/>
	<path class="st0" d="M624.3,235.1c0,1.3-0.2,2.6-0.5,4s-0.8,2.8-1.4,4.2c-0.6,1.4-1.4,2.7-2.2,3.9c-0.9,1.3-1.9,2.4-3,3.4l-4.7-2.6
		c1.3-1.9,2.2-3.9,2.8-6.1c0.5-2.2,0.8-4.4,0.8-6.7v-7.3h8.2V235.1z"/>
	<path class="st2" d="M717,236.9v-38.4h-12.2v-5.9H717v-3.1c0-2.8,0.4-5.3,1.2-7.5c0.8-2.1,2-3.9,3.5-5.4c1.5-1.4,3.3-2.5,5.5-3.3
		c2.1-0.7,4.5-1.1,7.1-1.1c1.8,0,3.6,0.2,5.3,0.5c1.7,0.3,3.5,0.7,5.3,1.1l-0.9,6.3c-1.1-0.4-2.4-0.7-3.9-1
		c-1.5-0.3-3.1-0.4-4.8-0.4c-3.5,0-6.2,0.9-8,2.7c-1.8,1.8-2.7,4.5-2.7,8.1v3.1h17.1v5.9h-17.1v38.4H717z"/>
	<path class="st0" d="M765.5,168.8h16.2v80.9h-16.2v-6.2h9.1V175h-9.1V168.8z"/>
</g>
<g>
	<path class="st1" d="M335.3,318.2h4.5c1.6,0,3-0.2,4.2-0.6c1.2-0.4,2.2-1,3-1.8c0.8-0.7,1.5-1.6,1.9-2.7c0.4-1,0.6-2.2,0.6-3.4
		c0-2.9-0.7-5-2.2-6.5c-1.5-1.5-3.6-2.2-6.4-2.2c-1.3,0-2.5,0.2-3.6,0.6c-1.1,0.4-2,1-2.8,1.7c-0.8,0.7-1.4,1.6-1.8,2.7
		c-0.4,1-0.6,2.2-0.6,3.5h-6.3c0-1.9,0.4-3.6,1.1-5.3c0.7-1.7,1.8-3.1,3.1-4.3c1.3-1.2,2.9-2.2,4.8-2.9c1.9-0.7,3.9-1.1,6.2-1.1
		c2.2,0,4.2,0.3,6.1,0.9c1.8,0.6,3.4,1.5,4.7,2.7s2.3,2.6,3,4.4c0.7,1.7,1.1,3.7,1.1,6c0,0.9-0.1,1.9-0.4,2.9c-0.3,1-0.7,2-1.4,3
		c-0.6,1-1.4,1.9-2.4,2.7c-1,0.8-2.1,1.6-3.4,2.1c1.6,0.5,2.9,1.2,4,2c1.1,0.8,1.9,1.8,2.6,2.8c0.6,1,1.1,2.1,1.4,3.3
		c0.3,1.2,0.4,2.3,0.4,3.4c0,2.3-0.4,4.3-1.2,6.1c-0.8,1.8-1.9,3.3-3.3,4.5s-3.1,2.2-5,2.8c-1.9,0.6-4,1-6.2,1
		c-2.2,0-4.2-0.3-6.1-0.9s-3.6-1.5-5-2.7c-1.4-1.2-2.5-2.6-3.3-4.3c-0.8-1.7-1.2-3.6-1.2-5.8h6.3c0,1.3,0.2,2.5,0.7,3.5
		c0.4,1.1,1.1,2,1.9,2.7c0.8,0.7,1.8,1.3,3,1.7c1.2,0.4,2.5,0.6,3.9,0.6c1.4,0,2.7-0.2,3.9-0.6c1.2-0.4,2.1-0.9,2.9-1.7
		s1.4-1.7,1.9-2.9s0.7-2.5,0.7-4c0-1.5-0.3-2.9-0.8-4c-0.5-1.1-1.2-2-2.1-2.8c-0.9-0.7-2-1.3-3.3-1.7c-1.3-0.4-2.7-0.5-4.3-0.5h-4.5
		V318.2z"/>
	<path class="st1" d="M411.4,315.1v-6.5l29.9,12.8v4.9l-29.9,12.8v-6.5l21.9-8.3l2-0.6l-2-0.6L411.4,315.1z"/>
	<path class="st2" d="M524.7,345.9h-32.3v-4.5l16.2-17.9c1.4-1.6,2.7-3,3.6-4.3c1-1.2,1.7-2.4,2.3-3.4c0.6-1,1-2,1.3-3
		c0.2-0.9,0.4-1.9,0.4-2.9c0-1.2-0.2-2.4-0.6-3.4c-0.4-1.1-1-2-1.7-2.8c-0.8-0.8-1.7-1.4-2.7-1.9s-2.3-0.7-3.6-0.7
		c-1.6,0-3.1,0.2-4.3,0.7s-2.2,1.1-3,2c-0.8,0.9-1.4,1.9-1.8,3.2c-0.4,1.2-0.6,2.6-0.6,4.2h-6.3c0-2.1,0.4-4,1.1-5.9
		c0.7-1.8,1.8-3.4,3.1-4.8c1.4-1.4,3-2.5,5-3.3c2-0.8,4.2-1.2,6.8-1.2c2.3,0,4.4,0.3,6.3,1c1.9,0.7,3.4,1.6,4.7,2.9
		c1.3,1.2,2.3,2.7,3,4.3c0.7,1.7,1,3.5,1,5.5c0,1.5-0.2,2.9-0.7,4.4c-0.5,1.4-1.2,2.9-2,4.2c-0.8,1.4-1.8,2.8-2.9,4.1
		c-1.1,1.4-2.3,2.7-3.5,4.1L500,340.8h24.8V345.9z"/>
</g>
</svg>
